<?xml version="1.0" encoding="UTF-8"?>
<svg width="256px" height="268px" preserveAspectRatio="xMidYMid" version="1.1" viewBox="0 0 256 268" xmlns="http://www.w3.org/2000/svg" xmlns:cc="http://creativecommons.org/ns#" xmlns:dc="http://purl.org/dc/elements/1.1/" xmlns:rdf="http://www.w3.org/1999/02/22-rdf-syntax-ns#">
 <metadata>
  <rdf:RDF>
   <cc:Work rdf:about="">
    <dc:format>image/svg+xml</dc:format>
    <dc:type rdf:resource="http://purl.org/dc/dcmitype/StillImage"/>
    <dc:title>Notion</dc:title>
   </cc:Work>
  </rdf:RDF>
 </metadata>
 <title>Notion</title>
 <g transform="matrix(.8 0 0 .8 25.599 26.746)">
  <path d="m18.319 13.97 145.05-10.712c17.817-1.5292 22.395-0.49807 33.598 7.6459l46.303 32.62c7.6371 5.6099 10.18 7.139 10.18 13.247v178.9c0 11.211-4.0719 17.843-18.324 18.857l-168.44 10.197c-10.696 0.50681-15.789-1.0223-21.391-8.1614l-34.096-44.337c-6.1167-8.1614-8.6508-14.269-8.6508-21.408v-159.01c0-9.1663 4.0719-16.812 15.772-17.826z" fill="#fff" stroke-width=".9801"/>
  <path d="m164.09 0.60805-148 10.93c-11.938 1.0342-16.092 8.8353-16.092 18.188v162.24c0 7.284 2.5855 13.516 8.8264 21.843l34.788 45.237c5.7148 7.284 10.913 8.8442 21.825 8.3271l171.86-10.404c14.532-1.0342 18.696-7.8011 18.696-19.24v-182.53c0-5.911-2.3359-7.6138-9.2097-12.66-0.39553-0.28492-0.79079-0.57021-1.1858-0.85589l-47.234-33.282c-11.43-8.3093-16.101-9.3613-34.28-7.8011zm-94.763 51.612c-14.033 0.94504-17.216 1.159-25.186-5.3226l-20.265-16.119c-2.0595-2.0862-1.0253-4.6896 4.1635-5.2067l142.27-10.395c11.947-1.0431 18.17 3.1204 22.842 6.758l24.402 17.679c1.0431 0.52602 3.6375 3.6375 0.5171 3.6375l-146.93 8.8442zm-16.36 183.95v-154.95c0-6.7669 2.0773-9.8873 8.3003-10.413l168.75-9.8784c5.7238-0.5171 8.3093 3.1204 8.3093 9.8784v153.92c0 6.7669-1.0431 12.491-10.387 13.008l-161.49 9.3613c-9.3435 0.5171-13.489-2.5944-13.489-10.922z" fill="#333"/>
  <g transform="rotate(-5)" fill="#333" stroke-width="1.0829" style="font-variant-caps:normal;font-variant-east-asian:normal;font-variant-ligatures:normal;font-variant-numeric:normal" aria-label="λ">
   <path d="m83.177 224.11q0-1.4554 2.0791-4.7819l52.601-74.432t6.2373-8.7322q-4.574-21.831-18.088-21.831-1.0396 0-2.9107 0.20791-1.6633 0.20791-2.4949 0.20791-3.3266 0-5.6136-2.287t-2.287-5.8215q0-9.7718 14.554-9.7718 13.306 0 22.246 9.5639 9.148 9.356 11.851 24.949 0.62373 3.3266 2.0791 20.375 1.6633 17.049 3.9503 33.681 2.4949 16.425 5.8215 24.949 1.0396 2.287 4.1582 4.9898t3.1186 6.2373q0 3.3266-2.7028 6.4452-2.4949 2.9107-6.4452 2.9107t-7.2768-2.4949q-3.1186-2.7028-5.6136-8.1085-2.287-5.6136-4.1582-11.227-1.6633-5.8215-3.3266-14.762-1.4554-8.9401-2.4949-15.593-0.83164-6.861-1.8712-17.049l-44.909 63.413q-2.287 3.3266-3.9503 4.1582t-4.574 0.83164h-2.0791q-7.9006 0-7.9006-6.0294z" fill="#333" stroke-width="1.0829"/>
  </g>
 </g>
</svg>
